<?xml version="1.0" encoding="UTF-8" standalone="no"?>
<!DOCTYPE svg PUBLIC "-//W3C//DTD SVG 1.1//EN" "http://www.w3.org/Graphics/SVG/1.1/DTD/svg11.dtd">
<svg version="1.1" xmlns="http://www.w3.org/2000/svg" xmlns:xlink="http://www.w3.org/1999/xlink" preserveAspectRatio="xMidYMid meet" viewBox="0 0 640 640" width="640" height="640"><defs><path d="M300.58 326.15L339.41 326.15L339.41 338.24L300.58 338.24L300.58 326.15Z" id="a139FgRLsq"></path><path d="M352.36 338.02C352.36 341.64 352.36 343.65 352.36 344.06C352.36 347.4 349.46 350.1 345.89 350.1C340.71 350.1 299.29 350.1 294.11 350.1C290.54 350.1 287.64 347.4 287.64 344.06C287.64 343.65 287.64 341.64 287.64 338.02C265.8 338.02 253.66 338.02 251.23 338.02C242.87 338.02 235.47 333.04 232.82 325.62C231.27 321.28 223.51 299.55 209.55 260.44C209.55 339.61 209.55 383.6 209.55 392.39C209.55 402.39 218.26 410.52 228.96 410.52C247.17 410.52 392.83 410.52 411.04 410.52C421.74 410.52 430.45 402.39 430.45 392.39C430.45 383.6 430.45 339.61 430.45 260.44C416.49 299.55 408.73 321.28 407.18 325.62C404.53 333.04 397.13 338.02 388.77 338.02C383.91 338.02 371.78 338.02 352.36 338.02Z" id="b2a8fP410G"></path><path d="M294.11 229.48C283.41 229.48 274.7 237.61 274.7 247.61C274.7 248.01 274.7 250.02 274.7 253.65L220.68 253.65C235.33 294.67 243.46 317.46 245.09 322.02C245.98 324.49 248.45 326.15 251.23 326.15C253.66 326.15 265.8 326.15 287.64 326.15C287.64 322.53 287.64 320.51 287.64 320.11C287.64 316.77 290.54 314.07 294.11 314.07C299.29 314.07 340.71 314.07 345.89 314.07C349.46 314.07 352.36 316.77 352.36 320.11C352.36 320.51 352.36 322.53 352.36 326.15C374.2 326.15 386.34 326.15 388.76 326.15C391.55 326.15 394.02 324.49 394.91 322.02C396.54 317.46 404.67 294.67 419.32 253.65L365.3 253.65C365.3 250.02 365.3 248.01 365.3 247.61C365.3 237.61 356.59 229.48 345.89 229.48C335.53 229.48 299.29 229.48 294.11 229.48ZM287.64 253.65C287.64 250.02 287.64 248.01 287.64 247.61C287.64 244.27 290.54 241.56 294.11 241.56C299.29 241.56 340.71 241.56 345.89 241.56C349.46 241.56 352.36 244.27 352.36 247.61C352.36 248.01 352.36 250.02 352.36 253.65L287.64 253.65Z" id="dBLGCDMI0"></path></defs><g><g><g><use xlink:href="#a139FgRLsq" opacity="1" fill="#000000" fill-opacity="1"></use><g><use xlink:href="#a139FgRLsq" opacity="1" fill-opacity="0" stroke="#000000" stroke-width="1" stroke-opacity="0"></use></g></g><g><use xlink:href="#b2a8fP410G" opacity="1" fill="#000000" fill-opacity="1"></use><g><use xlink:href="#b2a8fP410G" opacity="1" fill-opacity="0" stroke="#000000" stroke-width="1" stroke-opacity="0"></use></g></g><g><use xlink:href="#dBLGCDMI0" opacity="1" fill="#000000" fill-opacity="1"></use><g><use xlink:href="#dBLGCDMI0" opacity="1" fill-opacity="0" stroke="#000000" stroke-width="1" stroke-opacity="0"></use></g></g></g></g></svg>