<?xml version="1.0" encoding="UTF-8" standalone="no"?>
<!DOCTYPE svg PUBLIC "-//W3C//DTD SVG 1.1//EN" "http://www.w3.org/Graphics/SVG/1.1/DTD/svg11.dtd">
<svg version="1.1" xmlns="http://www.w3.org/2000/svg" xmlns:xlink="http://www.w3.org/1999/xlink" preserveAspectRatio="xMidYMid meet" viewBox="0 0 300 249" width="300" height="249"><defs><path d="M200.6 79.49C199.02 79.49 194.22 79.49 164.78 101.44C155.28 108.53 144.76 116.78 135.02 124.76C136.79 126.31 150.9 138.78 152.66 140.34C162.41 131.05 172.48 121.01 181 112.02C188.56 104.03 194.38 97.44 198.28 92.44C203.84 85.31 205.08 82.13 203.02 80.31C202.59 79.94 201.83 79.49 200.6 79.49Z" id="henzfTAbA"></path><path d="M138.69 152.85C141.58 150.24 144.58 147.47 147.64 144.6C145.85 143.01 131.5 130.35 129.71 128.77C126.45 131.47 123.31 134.13 120.36 136.66C124.03 139.9 136.86 151.23 138.69 152.85Z" id="c1VCksF1et"></path><path d="M93.45 160.83C91.81 167.92 90.64 171.65 83.9 172.12C82.87 172.19 82.03 172.88 81.87 173.77C81.71 174.66 82.27 175.56 83.22 175.9C83.6 176.04 92.66 179.33 103.25 179.33C103.26 179.33 103.26 179.33 103.26 179.33C114.89 179.33 129.69 175.33 134.48 156.63C134.5 156.61 134.52 156.59 134.53 156.58C132.69 154.95 117.98 141.96 116.14 140.34C116.14 140.34 116.14 140.34 116.13 140.34C97.76 142.29 95.38 152.56 93.45 160.83Z" id="b1ZM4uED6u"></path></defs><g><g><g><use xlink:href="#henzfTAbA" opacity="1" fill="#000000" fill-opacity="1"></use><g><use xlink:href="#henzfTAbA" opacity="1" fill-opacity="0" stroke="#000000" stroke-width="1" stroke-opacity="0"></use></g></g><g><use xlink:href="#c1VCksF1et" opacity="1" fill="#000000" fill-opacity="1"></use><g><use xlink:href="#c1VCksF1et" opacity="1" fill-opacity="0" stroke="#000000" stroke-width="1" stroke-opacity="0"></use></g></g><g><use xlink:href="#b1ZM4uED6u" opacity="1" fill="#000000" fill-opacity="1"></use><g><use xlink:href="#b1ZM4uED6u" opacity="1" fill-opacity="0" stroke="#000000" stroke-width="1" stroke-opacity="0"></use></g></g></g></g></svg>