<?xml version="1.0" encoding="UTF-8" standalone="no"?>
<!DOCTYPE svg PUBLIC "-//W3C//DTD SVG 1.1//EN" "http://www.w3.org/Graphics/SVG/1.1/DTD/svg11.dtd">
<svg version="1.1" xmlns="http://www.w3.org/2000/svg" xmlns:xlink="http://www.w3.org/1999/xlink" preserveAspectRatio="xMidYMid meet" viewBox="0 0 300 249" width="300" height="249"><defs><path d="M99.12 79.49C89.59 79.49 81.84 88.16 81.84 98.81C81.84 104.93 81.84 153.9 81.84 160.02C81.84 170.67 89.59 179.33 99.12 179.33C107.88 179.33 177.91 179.33 186.67 179.33C196.2 179.33 203.95 170.67 203.95 160.02C203.95 153.9 203.95 104.93 203.95 98.81C203.95 88.16 196.2 79.49 186.67 79.49C186.67 79.49 107.88 79.49 99.12 79.49ZM107.97 130.54C117.67 141.38 123.06 147.4 124.14 148.6C125.54 150.17 125.54 152.7 124.14 154.26C122.75 155.82 120.48 155.82 119.08 154.26C117.21 152.17 102.25 135.45 100.38 133.36C98.99 131.8 98.99 129.27 100.38 127.71C102.46 125.39 119.02 106.88 121.09 104.57C122.49 103 124.76 103 126.15 104.57C127.55 106.13 127.55 108.66 126.15 110.22C123.73 112.93 117.67 119.7 107.97 130.54ZM136.75 160.67C136.09 162.76 134.04 163.85 132.18 163.11C130.32 162.38 129.34 160.09 130 158.01C131.89 152.02 147.02 104.14 148.92 98.15C149.57 96.07 151.62 94.98 153.48 95.71C155.34 96.45 156.32 98.73 155.66 100.81C151.88 112.79 138.64 154.69 136.75 160.67ZM164.7 154.26C163.3 155.82 161.03 155.82 159.63 154.26C158.24 152.7 158.24 150.17 159.63 148.6C160.85 147.25 166.91 140.48 177.81 128.29C168.11 117.45 162.73 111.42 161.65 110.22C160.25 108.66 160.25 106.13 161.65 104.57C163.04 103 165.31 103 166.71 104.57C168.58 106.66 183.53 123.37 185.4 125.46C186.8 127.02 186.8 129.55 185.4 131.11C181.26 135.74 166.77 151.94 164.7 154.26Z" id="f11hlrlbRJ"></path></defs><g><g><g><use xlink:href="#f11hlrlbRJ" opacity="1" fill="#000000" fill-opacity="1"></use><g><use xlink:href="#f11hlrlbRJ" opacity="1" fill-opacity="0" stroke="#000000" stroke-width="1" stroke-opacity="0"></use></g></g></g></g></svg>