<?xml version="1.0" encoding="UTF-8" standalone="no"?>
<!DOCTYPE svg PUBLIC "-//W3C//DTD SVG 1.1//EN" "http://www.w3.org/Graphics/SVG/1.1/DTD/svg11.dtd">
<svg version="1.1" xmlns="http://www.w3.org/2000/svg" xmlns:xlink="http://www.w3.org/1999/xlink" preserveAspectRatio="xMidYMid meet" viewBox="0 0 300 249" width="300" height="249"><defs><path d="M200.37 75.69C189.69 75.69 104.25 75.69 93.57 75.69C90.63 75.69 88.11 76.7 86.02 78.72C83.93 80.74 82.88 83.17 82.88 86.01C82.88 93.04 82.88 149.22 82.88 156.25C82.88 159.09 83.93 161.52 86.02 163.54C88.11 165.57 90.63 166.58 93.57 166.58C97.2 166.58 126.25 166.58 129.88 166.58C129.88 168.21 129.52 169.89 128.81 171.61C128.1 173.33 127.39 174.84 126.68 176.13C125.96 177.42 125.61 178.37 125.61 178.97C125.61 180.09 126.03 181.06 126.88 181.87C127.72 182.69 128.72 183.1 129.88 183.1C133.3 183.1 160.64 183.1 164.06 183.1C165.22 183.1 166.22 182.69 167.06 181.87C167.91 181.06 168.33 180.09 168.33 178.97C168.33 178.41 167.98 177.47 167.26 176.16C166.55 174.85 165.84 173.32 165.13 171.58C164.42 169.84 164.06 168.17 164.06 166.58C167.69 166.58 196.74 166.58 200.38 166.58C203.31 166.58 205.83 165.57 207.92 163.54C210.01 161.52 211.05 159.09 211.05 156.25C211.05 149.22 211.05 93.04 211.05 86.01C211.06 83.17 210.01 80.74 207.92 78.72C205.83 76.7 203.31 75.69 200.37 75.69ZM201.88 141.17C201.45 141.58 200.95 141.79 200.37 141.79C189.69 141.79 104.25 141.79 93.57 141.79C92.99 141.79 92.49 141.58 92.06 141.17C91.64 140.76 91.43 140.28 91.43 139.72C91.43 134.35 91.43 91.39 91.43 86.01C91.43 85.46 91.64 84.97 92.06 84.56C92.49 84.15 92.99 83.95 93.57 83.95C104.25 83.95 189.69 83.95 200.38 83.95C200.95 83.95 201.45 84.15 201.88 84.56C202.3 84.97 202.51 85.46 202.51 86.01C202.51 89.6 202.51 107.5 202.51 139.72L202.51 139.72C202.37 140.42 202.16 140.9 201.88 141.17Z" id="b4EM6jZH"></path></defs><g><g><g><use xlink:href="#b4EM6jZH" opacity="1" fill="#000000" fill-opacity="1"></use><g><use xlink:href="#b4EM6jZH" opacity="1" fill-opacity="0" stroke="#000000" stroke-width="1" stroke-opacity="0"></use></g></g></g></g></svg>