<?xml version="1.0" encoding="UTF-8" standalone="no"?>
<!DOCTYPE svg PUBLIC "-//W3C//DTD SVG 1.1//EN" "http://www.w3.org/Graphics/SVG/1.1/DTD/svg11.dtd">
<svg version="1.1" xmlns="http://www.w3.org/2000/svg" xmlns:xlink="http://www.w3.org/1999/xlink" preserveAspectRatio="xMidYMid meet" viewBox="0 0 300 249" width="300" height="249"><defs><path d="M126.34 70.38C121.81 70.38 118.16 73.91 118.16 78.27C118.16 87.51 118.16 161.5 118.16 170.74C118.16 175.09 121.81 178.62 126.34 178.62C131.07 178.62 168.92 178.62 173.65 178.62C178.17 178.62 181.84 175.09 181.84 170.74C181.84 161.5 181.84 87.51 181.84 78.27C181.84 73.91 178.17 70.38 173.65 70.38C164.19 70.38 131.07 70.38 126.34 70.38ZM124.3 158.08L124.3 83.68L175.7 83.68L175.7 158.08L124.3 158.08ZM139.03 78.38L139.03 76.08L160.97 76.08L160.97 78.38L160.97 78.38L139.03 78.38ZM168.26 79.35C167.1 79.35 166.16 78.44 166.16 77.33C166.16 76.22 167.1 75.31 168.26 75.31C169.41 75.31 170.35 76.22 170.35 77.33C170.35 78.44 169.41 79.35 168.26 79.35ZM140.01 170.22L140.01 164.3L159.98 164.3L159.98 170.22L140.01 170.22Z" id="dsicJZdWt"></path></defs><g><g><g><use xlink:href="#dsicJZdWt" opacity="1" fill="#000000" fill-opacity="1"></use><g><use xlink:href="#dsicJZdWt" opacity="1" fill-opacity="0" stroke="#000000" stroke-width="1" stroke-opacity="0"></use></g></g></g></g></svg>