<?xml version="1.0"?>
<svg xmlns="http://www.w3.org/2000/svg" xmlns:xlink="http://www.w3.org/1999/xlink" xmlns:svgjs="http://svgjs.com/svgjs" version="1.1" width="512" height="512" x="0" y="0" viewBox="0 0 26.231 26.231" style="enable-background:new 0 0 512 512" xml:space="preserve"><g transform="matrix(-1.8369701987210297e-16,-1,1,-1.8369701987210297e-16,-0.00034530460834503174,26.231597021222118)">
<g xmlns="http://www.w3.org/2000/svg">
	<g id="c108_arrow">
		<path style="" d="M4.669,0.382v5.879l8.312,6.555c0.183,0.146,0.183,0.453,0,0.6l-8.312,6.556v5.879    c0,0.145,0.08,0.278,0.212,0.344c0.132,0.062,0.29,0.044,0.403-0.046l16.141-12.733c0.183-0.146,0.183-0.453,0-0.6L5.284,0.082    C5.171-0.007,5.013-0.026,4.881,0.039C4.749,0.101,4.669,0.235,4.669,0.382z" fill="#f80313" data-original="#030104"/>
	</g>
</g>
<g xmlns="http://www.w3.org/2000/svg">
</g>
<g xmlns="http://www.w3.org/2000/svg">
</g>
<g xmlns="http://www.w3.org/2000/svg">
</g>
<g xmlns="http://www.w3.org/2000/svg">
</g>
<g xmlns="http://www.w3.org/2000/svg">
</g>
<g xmlns="http://www.w3.org/2000/svg">
</g>
<g xmlns="http://www.w3.org/2000/svg">
</g>
<g xmlns="http://www.w3.org/2000/svg">
</g>
<g xmlns="http://www.w3.org/2000/svg">
</g>
<g xmlns="http://www.w3.org/2000/svg">
</g>
<g xmlns="http://www.w3.org/2000/svg">
</g>
<g xmlns="http://www.w3.org/2000/svg">
</g>
<g xmlns="http://www.w3.org/2000/svg">
</g>
<g xmlns="http://www.w3.org/2000/svg">
</g>
<g xmlns="http://www.w3.org/2000/svg">
</g>
</g></svg>
