<?xml version="1.0" encoding="UTF-8" standalone="no"?>
<!DOCTYPE svg PUBLIC "-//W3C//DTD SVG 1.1//EN" "http://www.w3.org/Graphics/SVG/1.1/DTD/svg11.dtd">
<svg version="1.1" xmlns="http://www.w3.org/2000/svg" xmlns:xlink="http://www.w3.org/1999/xlink" preserveAspectRatio="xMidYMid meet" viewBox="0 0 640 640" width="640" height="640"><defs><path d="M421.99 239.62C423.7 236.35 424.65 232.49 424.65 228.44C424.65 215.14 414 204.35 400.87 204.35C387.74 204.35 377.08 215.14 377.08 228.44C377.08 241.74 387.74 252.54 400.87 252.54C404.87 252.54 408.67 251.57 411.91 249.84C412.91 250.86 420.98 259.03 421.99 260.05C423.38 261.47 425.21 262.17 427.03 262.17C428.86 262.17 430.69 261.47 432.08 260.05C434.86 257.23 434.86 252.65 432.08 249.83C430.06 247.79 424.01 241.66 421.99 239.62ZM400.87 218.81C406.1 218.81 410.38 223.14 410.38 228.44C410.38 233.74 406.1 238.08 400.87 238.08C395.64 238.08 391.36 233.74 391.36 228.44C391.36 223.14 395.64 218.81 400.87 218.81Z" id="bU25CPuz2"></path><path d="M341.41 262.17C350.54 262.17 358.06 254.56 358.06 245.31C358.06 242.9 358.06 223.62 358.06 221.21C358.06 211.96 350.54 204.35 341.41 204.35C329.51 204.35 234.37 204.35 222.48 204.35C213.35 204.35 205.83 211.96 205.83 221.21C205.83 223.62 205.83 242.9 205.83 245.31C205.83 254.56 213.35 262.17 222.48 262.17C222.48 262.17 329.51 262.17 341.41 262.17Z" id="b8J7Ll7z5"></path><path d="M298.59 281.45C289.46 281.45 281.94 289.06 281.94 298.32C281.94 310.36 281.94 406.74 281.94 418.79C281.94 428.04 289.46 435.65 298.59 435.65C310.49 435.65 405.63 435.65 417.52 435.65C426.65 435.65 434.17 428.04 434.17 418.79C434.17 406.74 434.17 310.36 434.17 298.32C434.17 289.06 426.65 281.45 417.52 281.45C393.73 281.45 310.49 281.45 298.59 281.45ZM372.33 334.46C372.33 342.46 365.95 348.91 358.06 348.91C350.16 348.91 343.79 342.46 343.79 334.46C343.79 326.46 350.16 320 358.06 320C365.95 320 372.33 326.46 372.33 334.46ZM386.6 380.24C386.6 384.19 383.36 387.46 379.46 387.46C375.18 387.46 340.93 387.46 336.65 387.46C332.75 387.46 329.51 384.19 329.51 380.24C329.51 379.88 329.51 377.03 329.51 376.67C329.51 366.65 338.46 358.55 349.49 358.55C351.21 358.55 364.91 358.55 366.62 358.55C377.66 358.55 386.6 366.65 386.6 376.67C386.6 377.38 386.6 379.52 386.6 380.24Z" id="dfiU56JAE"></path><path d="M234.37 373.01C218.61 373.01 205.83 385.95 205.83 401.92C205.83 417.89 218.61 430.83 234.37 430.83C250.14 430.83 262.92 417.89 262.92 401.92C262.92 385.95 250.14 373.01 234.37 373.01Z" id="b4NMzAckkh"></path><path d="M255.78 324.82C259.72 324.82 262.92 321.58 262.92 317.59C262.92 313.6 259.72 310.36 255.78 310.36C251.5 310.36 217.25 310.36 212.97 310.36C209.03 310.36 205.83 313.6 205.83 317.59C205.83 321.58 209.03 324.82 212.97 324.82C221.53 324.82 251.5 324.82 255.78 324.82Z" id="bZvnGG0"></path><path d="M255.78 353.73C259.72 353.73 262.92 350.49 262.92 346.5C262.92 342.51 259.72 339.28 255.78 339.28C251.5 339.28 217.25 339.28 212.97 339.28C209.03 339.28 205.83 342.51 205.83 346.5C205.83 350.49 209.03 353.73 212.97 353.73C221.53 353.73 251.5 353.73 255.78 353.73Z" id="dcpeHMN80"></path><path d="M255.78 295.91C259.72 295.91 262.92 292.67 262.92 288.68C262.92 284.69 259.72 281.45 255.78 281.45C251.5 281.45 217.25 281.45 212.97 281.45C209.03 281.45 205.83 284.69 205.83 288.68C205.83 292.67 209.03 295.91 212.97 295.91C221.53 295.91 251.5 295.91 255.78 295.91Z" id="i13M4K8tEB"></path></defs><g><g><g><use xlink:href="#bU25CPuz2" opacity="1" fill="#000000" fill-opacity="1"></use><g><use xlink:href="#bU25CPuz2" opacity="1" fill-opacity="0" stroke="#000000" stroke-width="1" stroke-opacity="0"></use></g></g><g><use xlink:href="#b8J7Ll7z5" opacity="1" fill="#000000" fill-opacity="1"></use><g><use xlink:href="#b8J7Ll7z5" opacity="1" fill-opacity="0" stroke="#000000" stroke-width="1" stroke-opacity="0"></use></g></g><g><use xlink:href="#dfiU56JAE" opacity="1" fill="#000000" fill-opacity="1"></use><g><use xlink:href="#dfiU56JAE" opacity="1" fill-opacity="0" stroke="#000000" stroke-width="1" stroke-opacity="0"></use></g></g><g><use xlink:href="#b4NMzAckkh" opacity="1" fill="#000000" fill-opacity="1"></use><g><use xlink:href="#b4NMzAckkh" opacity="1" fill-opacity="0" stroke="#000000" stroke-width="1" stroke-opacity="0"></use></g></g><g><use xlink:href="#bZvnGG0" opacity="1" fill="#000000" fill-opacity="1"></use><g><use xlink:href="#bZvnGG0" opacity="1" fill-opacity="0" stroke="#000000" stroke-width="1" stroke-opacity="0"></use></g></g><g><use xlink:href="#dcpeHMN80" opacity="1" fill="#000000" fill-opacity="1"></use><g><use xlink:href="#dcpeHMN80" opacity="1" fill-opacity="0" stroke="#000000" stroke-width="1" stroke-opacity="0"></use></g></g><g><use xlink:href="#i13M4K8tEB" opacity="1" fill="#000000" fill-opacity="1"></use><g><use xlink:href="#i13M4K8tEB" opacity="1" fill-opacity="0" stroke="#000000" stroke-width="1" stroke-opacity="0"></use></g></g></g></g></svg>